<svg xmlns="http://www.w3.org/2000/svg" width="23" height="21" viewBox="0 0 23 21">
  <metadata><?xpacket begin="﻿" id="W5M0MpCehiHzreSzNTczkc9d"?>
<x:xmpmeta xmlns:x="adobe:ns:meta/" x:xmptk="Adobe XMP Core 5.6-c138 79.159824, 2016/09/14-01:09:01        ">
   <rdf:RDF xmlns:rdf="http://www.w3.org/1999/02/22-rdf-syntax-ns#">
      <rdf:Description rdf:about=""/>
   </rdf:RDF>
</x:xmpmeta>
                                                                                                    
                                                                                                    
                                                                                                    
                                                                                                    
                                                                                                    
                                                                                                    
                                                                                                    
                                                                                                    
                                                                                                    
                                                                                                    
                                                                                                    
                                                                                                    
                                                                                                    
                                                                                                    
                                                                                                    
                                                                                                    
                                                                                                    
                                                                                                    
                                                                                                    
                                                                                                    
                           
<?xpacket end="w"?></metadata>
<defs>
    <style>
      .cls-1 {
        fill: #fff;
        fill-rule: evenodd;
      }
    </style>
  </defs>
  <path id="Forma_1" data-name="Forma 1" class="cls-1" d="M517.61,2312H497.394a1.415,1.415,0,0,0-1.4,1.42v14.75a1.424,1.424,0,0,0,1.4,1.43H517.61a1.424,1.424,0,0,0,1.4-1.43v-14.75A1.415,1.415,0,0,0,517.61,2312Zm-0.353,15.13H497.745V2314h19.512v13.13Zm-4.478,5.87H502.262l2.645-2.73h5.226Zm-6.36-14.9a0.95,0.95,0,1,1-.937.95A0.941,0.941,0,0,1,506.419,2318.1Zm3.781,3.07a0.95,0.95,0,1,1-.938.95A0.948,0.948,0,0,1,510.2,2321.17Zm3.739-3.32a0.955,0.955,0,1,1-.937.96A0.949,0.949,0,0,1,513.939,2317.85Zm-13.214,4.74a0.955,0.955,0,1,1-.938.96A0.949,0.949,0,0,1,500.725,2322.59Zm9.423-.75c-0.384-.33-3.689-3.18-3.689-3.18l-6.026,4.75,0.312,0.58s5.284-4.35,5.636-4.54c0.309,0.26,3.779,3.26,3.779,3.26l3.995-3.66-0.432-.49S510.522,2321.5,510.148,2321.84Z" transform="translate(-496 -2312)"/>
</svg>
