<svg xmlns="http://www.w3.org/2000/svg" width="22" height="25" viewBox="0 0 22 25">
  <metadata><?xpacket begin="﻿" id="W5M0MpCehiHzreSzNTczkc9d"?>
<x:xmpmeta xmlns:x="adobe:ns:meta/" x:xmptk="Adobe XMP Core 5.6-c138 79.159824, 2016/09/14-01:09:01        ">
   <rdf:RDF xmlns:rdf="http://www.w3.org/1999/02/22-rdf-syntax-ns#">
      <rdf:Description rdf:about=""/>
   </rdf:RDF>
</x:xmpmeta>
                                                                                                    
                                                                                                    
                                                                                                    
                                                                                                    
                                                                                                    
                                                                                                    
                                                                                                    
                                                                                                    
                                                                                                    
                                                                                                    
                                                                                                    
                                                                                                    
                                                                                                    
                                                                                                    
                                                                                                    
                                                                                                    
                                                                                                    
                                                                                                    
                                                                                                    
                                                                                                    
                           
<?xpacket end="w"?></metadata>
<defs>
    <style>
      .cls-1 {
        fill: #fff;
        fill-rule: evenodd;
      }
    </style>
  </defs>
  <path id="Forma_1" data-name="Forma 1" class="cls-1" d="M592.063,2168.41a2.035,2.035,0,1,1-2.042,2.03A2.037,2.037,0,0,1,592.063,2168.41Zm4.438,8.31a1.305,1.305,0,1,1-1.309,1.31A1.312,1.312,0,0,1,596.5,2176.72Zm7.179-2.99c1.645-8.03-4.9-11.71-12.16-10.55s-6.99,5.54-7.417,7.63c-0.851,5.24,4.558,11.1,4.558,11.1l-0.309,6.09h8.808l0.674-2.8s0.382,0.64,2.657.83,2-2.58,2-2.58,1.515-.67,1.515-1.17a2.237,2.237,0,0,0-.9-1.14,1.745,1.745,0,0,0,1.312-.23c0.347-.41-0.426-1.87-0.426-1.87a2.935,2.935,0,0,0,1.889-.8C606.585,2177.47,603.68,2175.2,603.68,2173.73Zm-12.579,1.1s-0.049-.54-0.073-0.81a4.409,4.409,0,0,1-.633-0.23c-0.24.21-.719,0.61-0.719,0.61s-0.082.05-.123,0.07-0.8-.07-0.8-0.07l-1.312-1.55v-0.92s0.5-.42.757-0.64a3.314,3.314,0,0,1-.1-0.63l-0.991-.45-0.265-.77,0.031-.13,0.847-1.84,0.9-.24,0.853,0.39a5.09,5.09,0,0,1,.56-0.38c-0.029-.34-0.084-1.02-0.084-1.02l0.655-.66,2.023-.16,0.655,0.65s0.041,0.52.063,0.78a5.917,5.917,0,0,1,.754.28c0.218-.18.657-0.56,0.657-0.56h0.927l1.322,1.54v0.92l-0.805.69a3.7,3.7,0,0,1,.071.57c0.338,0.2,1.015.59,1.015,0.59l0.235,0.89-1.015,1.75-0.9.24-0.79-.45c-0.148.11-.307,0.21-0.472,0.31,0.031,0.35.1,1.05,0.1,1.05l-0.655.65-2.02.18Zm8.241,5.16-0.574.15s-0.337-.19-0.507-0.29a1.9,1.9,0,0,1-.3.2l0.061,0.67-0.419.42-1.3.12-0.42-.42s-0.032-.35-0.048-0.52a2.7,2.7,0,0,1-.4-0.15c-0.155.14-.462,0.4-0.462,0.4a0.373,0.373,0,0,0-.078.04c-0.026.01-.516-0.04-0.516-0.04l-0.841-1v-0.59s0.323-.27.485-0.41a2.193,2.193,0,0,1-.066-0.41c-0.212-.09-0.636-0.29-0.636-0.29l-0.17-.49,0.019-.08,0.543-1.18,0.576-.15s0.364,0.16.547,0.25a3.68,3.68,0,0,1,.359-0.25c-0.018-.22-0.053-0.66-0.053-0.66l0.419-.42,1.3-.1,0.42,0.42s0.026,0.33.04,0.5a3.658,3.658,0,0,1,.484.18l0.421-.36h0.6l0.848,0.99v0.59s-0.344.29-.515,0.44a2.2,2.2,0,0,1,.044.37c0.217,0.12.652,0.37,0.652,0.37l0.15,0.58Z" transform="translate(-584 -2163)"/>
</svg>
