<svg xmlns="http://www.w3.org/2000/svg" width="22.969" height="21" viewBox="0 0 22.969 21">
  <metadata><?xpacket begin="﻿" id="W5M0MpCehiHzreSzNTczkc9d"?>
<x:xmpmeta xmlns:x="adobe:ns:meta/" x:xmptk="Adobe XMP Core 5.6-c138 79.159824, 2016/09/14-01:09:01        ">
   <rdf:RDF xmlns:rdf="http://www.w3.org/1999/02/22-rdf-syntax-ns#">
      <rdf:Description rdf:about=""/>
   </rdf:RDF>
</x:xmpmeta>
                                                                                                    
                                                                                                    
                                                                                                    
                                                                                                    
                                                                                                    
                                                                                                    
                                                                                                    
                                                                                                    
                                                                                                    
                                                                                                    
                                                                                                    
                                                                                                    
                                                                                                    
                                                                                                    
                                                                                                    
                                                                                                    
                                                                                                    
                                                                                                    
                                                                                                    
                                                                                                    
                           
<?xpacket end="w"?></metadata>
<defs>
    <style>
      .cls-1 {
        fill: #fff;
        fill-rule: evenodd;
      }
    </style>
  </defs>
  <path id="Forma_1" data-name="Forma 1" class="cls-1" d="M772.666,2263.1h-5.16c-0.224,0-.286-0.14-0.16-0.33a5.429,5.429,0,0,0,.668-3.68c-0.133-1.51-.455-2.09-0.9-2.09-0.73,0-1.789,1.58-2.862,3.14a16.436,16.436,0,0,1-5.047,4.22,6.7,6.7,0,0,1-.741.34l-2.722,1.01a0.64,0.64,0,0,0-.382.56v8.27a0.8,0.8,0,0,0,.354.63l1.172,0.68a2.232,2.232,0,0,0,.76.22,5.692,5.692,0,0,1,2.738,1.05c0.191,0.13.479,0.35,0.666,0.48a2.275,2.275,0,0,0,1.282.4h8.175a2.711,2.711,0,0,0,2.584-2.01c0.047-.23.077-0.6,0.12-0.83l1.726-9.22a2.826,2.826,0,0,0,.042-0.83A2.375,2.375,0,0,0,772.666,2263.1Zm-18.5,1.81h-1.489a0.687,0.687,0,0,0-.677.7v9.66a0.693,0.693,0,0,0,.677.7h1.489a0.693,0.693,0,0,0,.677-0.7v-9.66A0.687,0.687,0,0,0,754.166,2264.91Z" transform="translate(-752 -2257)"/>
</svg>
