<svg xmlns="http://www.w3.org/2000/svg" width="16" height="19" viewBox="0 0 16 19">
  <metadata><?xpacket begin="﻿" id="W5M0MpCehiHzreSzNTczkc9d"?>
<x:xmpmeta xmlns:x="adobe:ns:meta/" x:xmptk="Adobe XMP Core 5.6-c138 79.159824, 2016/09/14-01:09:01        ">
   <rdf:RDF xmlns:rdf="http://www.w3.org/1999/02/22-rdf-syntax-ns#">
      <rdf:Description rdf:about=""/>
   </rdf:RDF>
</x:xmpmeta>
                                                                                                    
                                                                                                    
                                                                                                    
                                                                                                    
                                                                                                    
                                                                                                    
                                                                                                    
                                                                                                    
                                                                                                    
                                                                                                    
                                                                                                    
                                                                                                    
                                                                                                    
                                                                                                    
                                                                                                    
                                                                                                    
                                                                                                    
                                                                                                    
                                                                                                    
                                                                                                    
                           
<?xpacket end="w"?></metadata>
<defs>
    <style>
      .cls-1 {
        fill: #fc635e;
        fill-rule: evenodd;
      }
    </style>
  </defs>
  <path id="Forma_1" data-name="Forma 1" class="cls-1" d="M895.628,2495.12a14.641,14.641,0,0,0,2.41-3.87,14.318,14.318,0,0,0,.5-1.45c0.054-.2.111-0.44,0.163-0.71,0.012-.06.021-0.11,0.032-0.17,0.012-.08.025-0.15,0.037-0.23a9.945,9.945,0,0,0,.125-2.05,6.614,6.614,0,0,1-.031-0.84c0.014-.02.028-0.03,0.041-0.05a0.3,0.3,0,0,0,.105-0.3,0.167,0.167,0,0,1-.028-0.03,0.561,0.561,0,0,1,.025-0.25c0.031-.13-0.061-0.2-0.2-0.16a0.786,0.786,0,0,1-.293.06l-0.034-.03a0.338,0.338,0,0,0-.273.18c-0.01.01-.02,0.03-0.029,0.04s-0.39.06-.829,0.15a9.959,9.959,0,0,0-3.286,1.32,13.132,13.132,0,0,0-4.11,4.11,1.511,1.511,0,0,1-1.21.63,5.731,5.731,0,0,0-5.687,3.66,0.5,0.5,0,0,0,.543.72c7.909-.15,8.63,4.7,8.6,6.65-0.007.44,0.274,0.66,0.658,0.43,2.874-1.71,2.684-4.94,2.418-6.43A1.87,1.87,0,0,1,895.628,2495.12Zm-0.89-2.18a1.612,1.612,0,0,1-1.978.29,1.541,1.541,0,0,1-.6-2.12,1.711,1.711,0,0,1,.184-0.25,1.611,1.611,0,0,1,1.978-.29,1.54,1.54,0,0,1,.6,2.12A2.055,2.055,0,0,1,894.738,2492.94Zm-6.957,10.67a6.992,6.992,0,0,0,2.626-3.32c0.17-.41-0.063-0.61-0.441-0.38a7.109,7.109,0,0,0-2.65,3.29C887.146,2503.61,887.4,2503.84,887.781,2503.61Zm-2.823.31a9.427,9.427,0,0,0,3.8-4.91c0.157-.42-0.079-0.62-0.463-0.39a9.549,9.549,0,0,0-3.83,4.87C884.313,2503.9,884.566,2504.13,884.958,2503.92Zm-0.509-2.89a6.989,6.989,0,0,0,2.625-3.32c0.17-.41-0.063-0.61-0.441-0.37a7.094,7.094,0,0,0-2.649,3.28C883.813,2501.03,884.065,2501.26,884.449,2501.03Z" transform="translate(-883 -2485)"/>
</svg>
